inDegrees=no
num_controls=7
num_derivatives=13
num_iterations=104
num_multipliers=7
num_parameters=0
num_slacks=7
num_states=26
objective=0.505795
objective_accelerations=0.011120
objective_balance=0.002628
objective_effort=0.021937
objective_height=0.465102
objective_ligament=0.005009
solver_duration=1354.162172
status=Solve_Succeeded
success=true
DataType=double
version=3
OpenSimVersion=4.5
endheader
time	/jointset/ground_pelvis/pelvis_tilt/value	/jointset/ground_pelvis/pelvis_tx/value	/jointset/ground_pelvis/pelvis_ty/value	/jointset/hip_r/hip_flexion_r/value	/jointset/hip_r/hip_adduction_r/value	/jointset/hip_r/hip_rotation_r/value	/jointset/back/lumbar_extension/value	/jointset/patellofemoral_r/patellar_flexion_r/value	/jointset/knee_r/knee_flexion_r/value	/jointset/knee_r/knee_adduction_r/value	/jointset/knee_r/knee_rotation_r/value	/jointset/ankle_r/ankle_angle_r/value	/jointset/subtalar_r/subtalar_angle_r/value	/jointset/ground_pelvis/pelvis_tilt/speed	/jointset/ground_pelvis/pelvis_tx/speed	/jointset/ground_pelvis/pelvis_ty/speed	/jointset/hip_r/hip_flexion_r/speed	/jointset/hip_r/hip_adduction_r/speed	/jointset/hip_r/hip_rotation_r/speed	/jointset/back/lumbar_extension/speed	/jointset/patellofemoral_r/patellar_flexion_r/speed	/jointset/knee_r/knee_flexion_r/speed	/jointset/knee_r/knee_adduction_r/speed	/jointset/knee_r/knee_rotation_r/speed	/jointset/ankle_r/ankle_angle_r/speed	/jointset/subtalar_r/subtalar_angle_r/speed	/forceset/tau_hip_flexion_r	/forceset/tau_hip_adduction_r	/forceset/tau_hip_rotation_r	/forceset/tau_knee_flexion_r	/forceset/tau_ankle_angle_r	/forceset/tau_subtalar_angle_r	/forceset/tau_lumbar_extension	lambda_cid13_p0	lambda_cid14_p0	lambda_cid14_p1	lambda_cid14_p2	lambda_cid14_p3	lambda_cid14_p4	lambda_cid14_p5	/jointset/ground_pelvis/pelvis_tilt/accel	/jointset/ground_pelvis/pelvis_tx/accel	/jointset/ground_pelvis/pelvis_ty/accel	/jointset/hip_r/hip_flexion_r/accel	/jointset/hip_r/hip_adduction_r/accel	/jointset/hip_r/hip_rotation_r/accel	/jointset/back/lumbar_extension/accel	/jointset/patellofemoral_r/patellar_flexion_r/accel	/jointset/knee_r/knee_flexion_r/accel	/jointset/knee_r/knee_adduction_r/accel	/jointset/knee_r/knee_rotation_r/accel	/jointset/ankle_r/ankle_angle_r/accel	/jointset/subtalar_r/subtalar_angle_r/accel	gamma_cid13_p0	gamma_cid14_p0	gamma_cid14_p1	gamma_cid14_p2	gamma_cid14_p3	gamma_cid14_p4	gamma_cid14_p5
0.5	0.06923880041387331	0.1187080449555625	0.9300188249564114	0.227305232303019	-0.22914656389164	-0.1951139001280086	-0.2791342528714894	0.3502496979414873	0.3502496979414924	0.1027723073796523	0.1744970545264603	0.2079707823266549	0.04317559795661958	0.216804665707046	0.05196705650456578	-0.0602535551440884	0.132397817467252	-0.01173208490267284	0.1581336253168887	-0.6082549683062691	0.7589870793536729	0.7589870793537229	-0.1369853457197017	-0.0001018486476807633	0.4624018660219942	0.1097519876754202	0.04030855494786103	-0.03542944944591495	-0.001752046244453535	-0.2594930618158396	0.02965896870305642	-0.02839814138902048	0.05590232459549722	-42.95315949787712	-34.71373728070996	-12.66730984841031	-4.08169053303775	9.709771848566934	-689.2431908422113	58.71659429992256	-0.1099453538434768	-0.04747332849945601	-0.09519298680762903	-0.11957113884291	-0.0450062491677579	-0.1947671048671582	0.6222369349271519	-0.4652318162634503	-0.4652318162634493	0.2705857635043703	-0.006735091566423809	-0.3144064190001182	-0.08653672295540428	-5.073505274194076e-08	-3.72994944316589e-08	4.666020704279988e-07	-3.588022104192169e-07	-2.400731856829445e-08	-4.775080568025662e-08	5.447963072641137e-07
0.51	0.07140097759368201	0.1192253272649101	0.9294116525109583	0.2286229103740368	-0.2292664771708587	-0.1935425575956952	-0.2851848315093066	0.3578151216045519	0.3578151216045555	0.1014168933805047	0.1744961041372494	0.2125783333475574	0.0442681411664451	0.2155968689757361	0.051487348882758	-0.06116662805073	0.1311155316745592	-0.01224416146885297	0.1561195498608266	-0.6017787436881551	0.7539857633974655	0.7539857633974985	-0.1340922891941502	-8.889587276359617e-05	0.4590495799037126	0.108746631300513	0.03860735646687261	-0.03348658122808734	-0.001496665393737541	-0.2601585465394304	0.02496954379484352	-0.02739268685084745	0.05802616988141544	-42.91119532926241	-36.19828951645326	-12.5396839856585	-4.045943565237116	10.2150980064399	-690.0322174279203	58.4615832610322	-0.1312846391049343	-0.04853265082848225	-0.0872274022817152	-0.135899991224509	-0.05336551253348713	-0.2070884173977189	0.6726175606195618	-0.5343551375374036	-0.5343551375399695	0.2994716220873941	0.005153349553059808	-0.3544619866834695	-0.1090088368324729	-4.782729388467439e-08	-3.474623642437354e-08	4.406172344140762e-07	-3.415267811192454e-07	-2.329777216373796e-08	-4.052241104298322e-08	5.188270199184068e-07
0.52	0.07355005924491245	0.1197377498636781	0.9287957767445006	0.2299270970487788	-0.2293913226461751	-0.1919918279482271	-0.2911681874338694	0.3653271773776051	0.3653271773776063	0.100090571151607	0.1744952518533012	0.217150597051589	0.04535033606410688	0.2141855599912239	0.05099511438863177	-0.06199421934496411	0.1296995382121789	-0.0127185241226471	0.1540110483478861	-0.5948104256553911	0.748313501351736	0.7483135013517522	-0.1311669916683238	-8.222759655554827e-05	0.4553444026477796	0.1076823252426411	0.03690615798587381	-0.03154371301026208	-0.001241284542991252	-0.260824031263029	0.02028011888662833	-0.02638723231267859	0.06015001516732804	-42.86153173092296	-37.68570173664622	-12.40962328118008	-4.013938084503237	10.71588899821441	-690.8750840666207	58.24249798990909	-0.1506478044839168	-0.04997870296313042	-0.07809666432613049	-0.1463126727804495	-0.03746346669057421	-0.2136523162428335	0.7206556178571328	-0.5994210341678373	-0.5994210341678174	0.27703396355937	-0.007991991308243889	-0.3849846465303918	-0.09832665954838338	-4.518507340196489e-08	-3.212292761494046e-08	4.1744687662678e-07	-3.242778032611865e-07	-2.289405811183605e-08	-3.305114078042154e-08	4.939257012885387e-07
0.53	0.07568398495973054	0.1202451888337466	0.9281720504260891	0.2312165662609573	-0.2295207134363397	-0.1904625734386186	-0.2970793754548089	0.3727792920101437	0.3727792920101482	0.09879361873173133	0.1744943927330317	0.2216841149586916	0.04642161434783316	0.2125688713910421	0.05049102067600398	-0.06273582098446066	0.1281707845159781	-0.01315502214552842	0.1518301343492369	-0.5873485307831697	0.7420024153968815	0.7420024153968927	-0.1282149389064853	-9.259259337464863e-05	0.4513031383202279	0.1065612723909673	0.03525068307807099	-0.02970721645918228	-0.0009921930253795218	-0.2615519731945114	0.01571772239839017	-0.02544463665933481	0.06223240857012077	-42.80415288900789	-39.13350585489949	-12.301431440908	-3.976727661894719	11.20051803152423	-691.6854993092434	58.00045756441912	-0.1717886962660911	-0.05087808414310779	-0.06991423619745818	-0.1596873398777367	-0.04606910309271525	-0.2218232234748108	0.7707535843180283	-0.6629950806453507	-0.6629950806461374	0.3056020282499405	0.001941164005606935	-0.4221110223744705	-0.1207770413528992	-4.237990832184724e-08	-2.958421261156396e-08	3.916862923981378e-07	-3.064519141373965e-07	-2.217533734247826e-08	-2.603224883969054e-08	4.671234990011383e-07
